<svg version="1.1" id="Layer_1" xmlns="http://www.w3.org/2000/svg" xmlns:xlink="http://www.w3.org/1999/xlink" x="0px" y="0px" viewBox="0 0 512 512" style="enable-background:new 0 0 512 512;" xml:space="preserve">
  <path style="fill:#1DA1F2;" d="M471.2,151.9c-16.5,7.3-34.3,12.2-52.7,14.5c19-11.4,33.5-29.5,40.4-51.1c-17.8,10.6-37.5,18.2-58.2,22.3c-16.8-17.9-40.7-29-67.2-29c-50.9,0-92.1,41.2-92.1,92.1c0,7.2,0.8,14.2,2.4,21c-76.7-3.8-144.6-40.5-190.1-96.1c-7.9,13.5-12.4,29.1-12.4,45.5c0,31.5,16.1,59.4,40.6,75.8c-14.9,0.4-29.1-4.6-41.2-13.6v1.1c0,44.2,31.4,80.9,73.1,89.3c-7.7,2.1-15.8,3.2-24.1,3.2c-5.9,0-11.6-0.6-17.3-1.7c11.6,36.4,45.3,62.9,85.3,63.6c-31.2,24.6-70.3,39.3-112.8,39.3c-7.3,0-14.6-0.4-21.8-1.3c40.3,25.9,88.5,41.1,140.5,41.1c168.6,0,260.5-139.5,260.5-260.5c0-4-0.1-8-0.2-12C448.5,186.4,461.4,170.3,471.2,151.9z"/>
</svg>
